<svg width="20" height="20" viewBox="0 0 20 20" fill="none" xmlns="http://www.w3.org/2000/svg">
<g clip-path="url(#clip0_4_896)">
<path d="M6.66666 18.3333C7.1269 18.3333 7.49999 17.9602 7.49999 17.5C7.49999 17.0397 7.1269 16.6666 6.66666 16.6666C6.20642 16.6666 5.83333 17.0397 5.83333 17.5C5.83333 17.9602 6.20642 18.3333 6.66666 18.3333Z" stroke="#6B6880" stroke-width="1.66667" stroke-linecap="round" stroke-linejoin="round"/>
<path d="M15.8333 18.3333C16.2936 18.3333 16.6667 17.9602 16.6667 17.5C16.6667 17.0397 16.2936 16.6666 15.8333 16.6666C15.3731 16.6666 15 17.0397 15 17.5C15 17.9602 15.3731 18.3333 15.8333 18.3333Z" stroke="#6B6880" stroke-width="1.66667" stroke-linecap="round" stroke-linejoin="round"/>
<path d="M1.70833 1.70837H3.375L5.59166 12.0584C5.67298 12.4374 5.88389 12.7763 6.18809 13.0166C6.49229 13.2569 6.87075 13.3837 7.25833 13.375H15.4083C15.7876 13.3744 16.1554 13.2444 16.4509 13.0066C16.7463 12.7687 16.9518 12.4371 17.0333 12.0667L18.4083 5.87504H4.26666" stroke="#6B6880" stroke-width="1.66667" stroke-linecap="round" stroke-linejoin="round"/>
</g>
<defs>
<clipPath id="clip0_4_896">
<rect width="20" height="20" fill="white"/>
</clipPath>
</defs>
</svg>
