<svg width="17" height="17" viewBox="0 0 17 17" fill="none" xmlns="http://www.w3.org/2000/svg">
<path d="M5.66668 15.5833C6.05788 15.5833 6.37501 15.2662 6.37501 14.875C6.37501 14.4838 6.05788 14.1667 5.66668 14.1667C5.27548 14.1667 4.95834 14.4838 4.95834 14.875C4.95834 15.2662 5.27548 15.5833 5.66668 15.5833Z" stroke="#130F2A" stroke-width="1.41667" stroke-linecap="round" stroke-linejoin="round"/>
<path d="M13.4583 15.5833C13.8495 15.5833 14.1667 15.2662 14.1667 14.875C14.1667 14.4838 13.8495 14.1667 13.4583 14.1667C13.0671 14.1667 12.75 14.4838 12.75 14.875C12.75 15.2662 13.0671 15.5833 13.4583 15.5833Z" stroke="#130F2A" stroke-width="1.41667" stroke-linecap="round" stroke-linejoin="round"/>
<path d="M1.45209 1.45208H2.86875L4.75292 10.2496C4.82204 10.5718 5.00131 10.8598 5.25988 11.0641C5.51845 11.2683 5.84015 11.3761 6.16959 11.3687H13.0971C13.4195 11.3682 13.7321 11.2577 13.9832 11.0556C14.2344 10.8534 14.409 10.5715 14.4783 10.2567L15.6471 4.99375H3.62667" stroke="#130F2A" stroke-width="1.41667" stroke-linecap="round" stroke-linejoin="round"/>
</svg>
